<svg xmlns="http://www.w3.org/2000/svg" width="14" height="16" viewBox="0 0 14 16"><title>podcast</title><path fill="#43536d" d="M8.875 10.643c0 .589-.063 1.179-.152 1.759-.134.929-.268 1.884-.491 2.795-.161.652-.768.804-1.357.804s-1.196-.152-1.357-.804c-.223-.911-.357-1.866-.491-2.795-.089-.58-.152-1.17-.152-1.759 0-1.205.973-1.5 2-1.5s2 .295 2 1.5zm4.839-3.786c0 2.893-1.786 5.366-4.321 6.375-.098.036-.205-.054-.188-.161l.089-.589.054-.42.08-.107c1.857-.946 3.143-2.875 3.143-5.098 0-3.259-2.732-5.884-6.027-5.705-3.018.161-5.42 2.732-5.402 5.75.018 2.223 1.313 4.143 3.179 5.071l.08.107.054.402.098.607c.018.107-.098.196-.196.152-2.652-1.036-4.5-3.679-4.348-6.723.17-3.455 2.955-6.286 6.411-6.5 3.982-.25 7.295 2.911 7.295 6.839zm-4.839-.286c0 1.107-.893 2-2 2s-2-.893-2-2 .893-2 2-2 2 .893 2 2zm2.571.286c0 1.473-.705 2.795-1.786 3.625-.089.071-.214.009-.232-.107-.027-.25-.098-.545-.259-.821-.036-.054-.027-.125.027-.179.679-.625 1.107-1.518 1.107-2.518 0-2.018-1.759-3.634-3.821-3.411-1.58.179-2.866 1.482-3.018 3.071-.116 1.125.33 2.161 1.089 2.857.054.054.063.125.027.179-.161.277-.232.571-.259.83-.018.107-.143.17-.232.098-1.107-.857-1.813-2.205-1.786-3.723.054-2.375 1.982-4.357 4.348-4.464 2.625-.125 4.795 1.964 4.795 4.563z"/></svg>